<svg width="602" height="108" viewBox="0 0 602 108" fill="none" xmlns="http://www.w3.org/2000/svg">
<path d="M526.627 26.8376L556.155 56.3749L526.627 85.9119C525.622 85.5101 524.819 84.5054 524.819 83.2998V29.4498C524.819 28.4451 525.622 27.4404 526.627 26.8376ZM558.164 58.5851L564.792 65.2158L533.055 83.5008L558.164 58.5851ZM567.404 49.1412L575.639 53.7626C577.045 54.5664 577.447 56.3748 576.644 57.7813C576.443 58.1832 576.041 58.585 575.639 58.786L567.404 63.4075L560.172 56.1738L567.404 49.1412ZM533.055 29.4498L564.792 47.7346L558.164 54.3655L533.055 29.4498Z" fill="white"/>
<path d="M486.854 7.54785H485.046V100.178H486.854V7.54785Z" fill="white"/>
<path d="M396.988 75.9587L392.85 83.252C391.667 85.4203 388.909 86.0116 386.938 84.8289C384.77 83.6462 384.179 80.8866 385.362 78.9154L388.515 73.5932C391.864 72.4105 394.623 73.199 396.988 75.9587ZM444.478 62.7518H433.049C427.335 52.8959 422.999 45.4055 420.241 40.4776C417.679 42.6459 415.117 48.9536 418.664 55.2614C422.211 61.372 427.729 70.8336 434.823 83.252C436.005 85.2232 438.764 86.0116 440.734 84.8289C442.705 83.6462 443.493 80.8866 442.311 78.9154L437.976 71.425H444.281C446.646 71.425 448.617 69.4538 448.617 67.0884C448.814 64.723 446.843 62.7518 444.478 62.7518ZM418.073 62.7518H404.476L423.196 30.2275C424.379 28.2563 423.788 25.4966 421.62 24.3139C419.452 23.1312 416.891 23.7226 415.708 25.8909L413.738 29.2419L411.767 25.8909C410.585 23.9197 407.826 23.1312 405.855 24.3139C403.885 25.4966 403.097 28.2563 404.279 30.2275L408.811 37.9151L394.623 62.5547H383.588C381.223 62.5547 379.253 64.5259 379.253 66.8913C379.253 69.2567 381.223 71.2278 383.588 71.2278H423.196C424.97 68.0739 422.408 62.7518 418.073 62.7518Z" fill="white"/>
<path d="M24.9464 74.7914L39.4647 35.1836H44.4801L58.9984 74.7914H53.9829L50.0234 63.7012H33.9214L29.9619 74.7914H24.9464ZM48.4397 59.2123L42.1044 41.2568H41.8404L35.5051 59.2123H48.4397Z" fill="white"/>
<path d="M74.0442 74.7916H69.2927L58.2061 45.2178H63.2214L71.4045 68.9825H71.6685L79.8515 45.2178H84.8669L74.0442 74.7916Z" fill="white"/>
<path d="M88.8279 66.3421C88.8279 59.4768 94.8993 58.4206 100.443 57.6284C105.986 56.8363 108.098 57.1003 108.098 54.9879V54.7239C108.098 51.0271 105.986 48.6507 101.762 48.6507C97.539 48.6507 95.1632 51.0271 94.1073 53.1395L89.8838 51.5553C92.2596 46.0102 97.275 44.6899 101.762 44.6899C105.458 44.6899 112.849 45.7461 112.849 55.252V74.7918H108.362V70.831H108.098C107.042 72.6794 104.402 75.5839 99.3867 75.5839C93.3154 75.3199 88.8279 72.1512 88.8279 66.3421ZM107.834 63.9657V59.7408C107.042 60.797 101.762 61.3251 99.9146 61.3251C96.483 61.8533 93.3154 62.9094 93.3154 66.3421C93.3154 69.5107 95.955 71.0951 99.6506 71.0951C104.93 71.3591 107.834 67.6624 107.834 63.9657Z" fill="white"/>
<path d="M119.975 37.0322C119.975 35.4479 121.559 33.8635 123.143 33.8635C124.991 33.8635 126.31 35.1838 126.31 37.0322C126.31 38.6165 124.727 40.2008 123.143 40.2008C121.295 40.2008 119.975 38.6165 119.975 37.0322ZM120.767 44.9537H125.254V74.7916H120.767V44.9537Z" fill="white"/>
<path d="M138.19 74.7914H133.702V35.1836H138.19V74.7914Z" fill="white"/>
<path d="M145.052 66.3421C145.052 59.4768 151.124 58.4206 156.667 57.6284C162.21 56.8363 164.322 57.1003 164.322 54.9879V54.7239C164.322 51.0271 162.21 48.6507 157.987 48.6507C153.763 48.6507 151.388 51.0271 150.332 53.1395L146.108 51.5553C148.484 46.0102 153.499 44.6899 157.987 44.6899C161.683 44.6899 169.074 45.7461 169.074 55.252V74.7918H164.586V70.831H164.058C163.002 72.6794 160.363 75.5839 155.347 75.5839C149.54 75.3199 145.052 72.1512 145.052 66.3421ZM164.322 63.9657V59.7408C163.53 60.797 158.251 61.3251 156.403 61.3251C152.971 61.8533 149.804 62.9094 149.804 66.3421C149.804 69.5107 152.444 71.0951 156.139 71.0951C161.419 71.3591 164.322 67.6624 164.322 63.9657Z" fill="white"/>
<path d="M177.784 35.1836H182.272V49.7064H182.536C183.592 48.1221 185.44 44.6895 191.247 44.6895C198.638 44.6895 203.917 50.7626 203.917 60.0044C203.917 69.5103 198.638 75.3195 191.247 75.3195C185.44 75.3195 183.592 71.8868 182.536 70.0385H182.008V74.5273H177.52V35.1836H177.784ZM190.719 71.3587C196.526 71.3587 199.43 66.3417 199.43 60.0044C199.43 53.6672 196.526 48.9143 190.719 48.9143C185.176 48.9143 182.272 53.4031 182.272 60.0044C182.272 66.6057 185.176 71.3587 190.719 71.3587Z" fill="white"/>
<path d="M215.533 74.7914H211.045V35.1836H215.533V74.7914Z" fill="white"/>
<path d="M222.396 60.0043C222.396 50.7625 227.675 44.4253 235.858 44.4253C241.929 44.4253 248.528 48.122 248.528 59.2122V61.0605H226.883C227.147 67.3977 230.843 70.8304 236.122 70.8304C239.817 70.8304 242.457 69.2461 243.513 66.0775L248 67.3978C246.681 71.8867 242.193 74.7912 236.122 74.7912C227.675 75.3193 222.396 69.2461 222.396 60.0043ZM243.777 57.3638C243.777 52.3468 240.609 48.6501 235.594 48.6501C230.315 48.6501 227.147 52.8749 226.883 57.3638H243.777Z" fill="white"/>
<path d="M269.382 60.0049C269.382 50.7631 274.925 44.6899 282.844 44.6899C290.764 44.6899 296.307 50.7631 296.307 60.0049C296.307 69.2466 290.764 75.3199 282.844 75.3199C274.661 75.3199 269.382 69.2466 269.382 60.0049ZM291.555 60.0049C291.555 53.9317 288.652 48.6507 282.581 48.6507C276.509 48.6507 273.606 53.9317 273.606 60.0049C273.606 66.078 276.509 71.095 282.581 71.095C288.916 71.3591 291.555 66.078 291.555 60.0049Z" fill="white"/>
<path d="M307.658 74.7915H303.171V45.2176H307.658V49.9706H307.922C309.242 47.066 312.146 44.9536 316.633 44.9536C322.704 44.9536 326.664 48.6503 326.664 56.0438V74.7915H322.177V56.3078C322.177 51.5549 319.537 48.9144 315.313 48.9144C310.826 48.9144 307.658 51.8189 307.658 57.1V74.7915Z" fill="white"/>
</svg>
